<svg width="18" height="18" viewBox="0 0 18 18" fill="none" xmlns="http://www.w3.org/2000/svg">
<path d="M15.4285 7.71429H14.1428V5.14286C14.1428 2.31429 11.8285 0 8.99993 0C6.17136 0 3.85707 2.31429 3.85707 5.14286V7.71429H2.57136C1.9285 7.71429 1.28564 8.35714 1.28564 9V16.7143C1.28564 17.3571 1.9285 18 2.57136 18H15.4285C16.0714 18 16.7142 17.3571 16.7142 16.7143V9C16.7142 8.35714 16.0714 7.71429 15.4285 7.71429ZM6.4285 5.14286C6.4285 3.72857 7.58564 2.57143 8.99993 2.57143C10.4142 2.57143 11.5714 3.72857 11.5714 5.14286V7.71429H6.4285V5.14286Z" fill="white"/>
</svg>
