<svg width="23" height="23" viewBox="0 0 23 23" fill="none" xmlns="http://www.w3.org/2000/svg">
<path d="M11.5 1.4375C9.50983 1.4375 7.56435 2.02766 5.90958 3.13334C4.25481 4.23902 2.96507 5.81057 2.20347 7.64925C1.44186 9.48793 1.24259 11.5112 1.63085 13.4631C2.01912 15.415 2.97748 17.208 4.38474 18.6153C5.79201 20.0225 7.58498 20.9809 9.53691 21.3692C11.4888 21.7574 13.5121 21.5581 15.3508 20.7965C17.1894 20.0349 18.761 18.7452 19.8667 17.0904C20.9724 15.4357 21.5625 13.4902 21.5625 11.5C21.5625 8.83126 20.5024 6.27182 18.6153 4.38474C16.7282 2.49765 14.1687 1.4375 11.5 1.4375ZM10.0625 15.5184L6.46875 11.9246L7.612 10.7813L10.0625 13.2316L15.3884 7.90625L16.5354 9.04612L10.0625 15.5184Z" fill="#7A866A"/>
</svg>
