<svg width="24" height="24" viewBox="0 0 24 24" fill="none" xmlns="http://www.w3.org/2000/svg">
<g clip-path="url(#clip0_3_1220)">
<path d="M12 3C7.05 3 3 7.05 3 12C3 16.95 7.05 21 12 21C16.95 21 21 16.95 21 12C21 7.05 16.95 3 12 3ZM12.7875 17.625H10.65V15.375H12.7875V17.625ZM15.7125 9.6375C15.7125 11.6625 14.25 12.5625 12.5625 12.7875L12.45 14.025H11.2125L10.875 11.4375L10.9875 11.325C13.0125 11.2125 13.9125 10.65 13.9125 9.525C13.9125 8.625 13.2375 8.0625 12.1125 8.0625C11.1 8.0625 10.3125 8.5125 9.525 9.3L8.2875 8.0625C9.1875 7.05 10.425 6.2625 12.1125 6.2625C14.25 6.375 15.7125 7.6125 15.7125 9.6375V9.6375Z" fill="white"/>
</g>
<defs>
<clipPath id="clip0_3_1220">
<rect width="18" height="18" fill="white" transform="translate(3 3)"/>
</clipPath>
</defs>
</svg>
