<svg width="86" height="86" viewBox="0 0 86 86" fill="none" xmlns="http://www.w3.org/2000/svg">
<circle cx="43" cy="43" r="42.5" stroke="white"/>
<path d="M55.2383 45.5967L47.6 51.7222H37.35V49.6667H45.6832C46.5012 49.6667 46.9911 48.7519 46.536 48.0695L44.7157 45.3315C43.9572 44.1866 42.678 43.5 41.3065 43.5H37.35H25.05C23.9164 43.5 23 44.4188 23 45.5556V57.8889C23 60.1582 24.8368 62 27.1 62H46.8599C48.6332 62 50.3204 61.2333 51.4888 59.8951L64 45.5556L61.0234 44.5607C59.0451 43.8988 56.868 44.2893 55.2383 45.5967ZM58.3789 34.0239C59.3034 33.0681 59.8754 31.7463 59.8754 30.2869C59.8754 28.8274 59.3034 27.5057 58.3789 26.5499C57.4543 25.592 56.1751 25 54.7627 25C54.7627 25 52.2125 24.9938 49.65 27.6434C47.0875 24.9938 44.5373 25 44.5373 25C43.1248 25 41.8456 25.592 40.9211 26.5478C39.9965 27.5057 39.4246 28.8254 39.4246 30.2848C39.4246 31.7443 39.9965 33.0681 40.9211 34.0218L49.65 43.5L58.3789 34.0239Z" fill="white"/>
</svg>
