<svg width="86" height="86" viewBox="0 0 86 86" fill="none" xmlns="http://www.w3.org/2000/svg">
<circle cx="43" cy="43" r="42.5" stroke="white"/>
<path d="M64.85 50.4375H63.7V42.6256C63.7 41.7078 63.3334 40.8262 62.6866 40.1758L55.5062 32.9564C54.8594 32.3061 53.9825 31.9375 53.0697 31.9375H49.9V28.4688C49.9 26.5537 48.3547 25 46.45 25H28.05C26.1453 25 24.6 26.5537 24.6 28.4688V31.9375H20.575C20.2587 31.9375 20 32.1977 20 32.5156V33.6719C20 33.9898 20.2587 34.25 20.575 34.25H40.125C40.4412 34.25 40.7 34.5102 40.7 34.8281V35.9844C40.7 36.3023 40.4412 36.5625 40.125 36.5625H22.875C22.5587 36.5625 22.3 36.8227 22.3 37.1406V38.2969C22.3 38.6148 22.5587 38.875 22.875 38.875H37.825C38.1412 38.875 38.4 39.1352 38.4 39.4531V40.6094C38.4 40.9273 38.1412 41.1875 37.825 41.1875H20.575C20.2587 41.1875 20 41.4477 20 41.7656V42.9219C20 43.2398 20.2587 43.5 20.575 43.5H35.525C35.8412 43.5 36.1 43.7602 36.1 44.0781V45.2344C36.1 45.5523 35.8412 45.8125 35.525 45.8125H24.6V55.0625C24.6 58.8926 27.6906 62 31.5 62C35.3094 62 38.4 58.8926 38.4 55.0625H47.6C47.6 58.8926 50.6906 62 54.5 62C58.3094 62 61.4 58.8926 61.4 55.0625H64.85C65.4825 55.0625 66 54.5422 66 53.9062V51.5938C66 50.9578 65.4825 50.4375 64.85 50.4375ZM31.5 58.5312C29.5953 58.5312 28.05 56.9775 28.05 55.0625C28.05 53.1475 29.5953 51.5938 31.5 51.5938C33.4047 51.5938 34.95 53.1475 34.95 55.0625C34.95 56.9775 33.4047 58.5312 31.5 58.5312ZM54.5 58.5312C52.5953 58.5312 51.05 56.9775 51.05 55.0625C51.05 53.1475 52.5953 51.5938 54.5 51.5938C56.4047 51.5938 57.95 53.1475 57.95 55.0625C57.95 56.9775 56.4047 58.5312 54.5 58.5312ZM60.25 43.5H49.9V35.4062H53.0697L60.25 42.6256V43.5Z" fill="white"/>
</svg>
