<svg width="25" height="25" viewBox="0 0 25 25" fill="none" xmlns="http://www.w3.org/2000/svg">
<path d="M12.3229 0C5.52805 0 0 5.52805 0 12.3229V13.2027V17.2521V17.4283C0 18.6901 1.10536 19.7166 2.46458 19.7166H3.69687C4.37832 19.7166 4.92916 19.1646 4.92916 18.4843V12.1467C4.92916 11.4665 4.37832 10.9144 3.69687 10.9144H2.57795C3.2631 6.14543 7.36663 2.46458 12.3229 2.46458C17.2792 2.46458 21.3827 6.14543 22.0678 10.9144H20.9489C20.2675 10.9144 19.7166 11.4665 19.7166 12.1467V17.2521V18.4843V19.7166C19.7166 21.0758 18.6113 22.1812 17.2521 22.1812H14.7875V20.9489H9.85832V24.6458H12.3229H14.7875H17.2521C19.9705 24.6458 22.1812 22.4351 22.1812 19.7166C23.5404 19.7166 24.6458 18.6901 24.6458 17.4283V17.2521V13.2027V12.3229C24.6458 5.52805 19.1177 0 12.3229 0Z" fill="white"/>
</svg>
