<svg width="325" height="36" viewBox="0 0 325 36" fill="none" xmlns="http://www.w3.org/2000/svg">
<path d="M23.1047 8.49831H21.9096V6.07022C21.9096 2.71946 19.2327 0 15.9343 0C12.6358 0 9.95888 2.71946 9.95888 6.07022V8.49831H8.76381C7.44922 8.49831 6.37366 9.59095 6.37366 10.9264V23.0668C6.37366 24.4023 7.44922 25.4949 8.76381 25.4949H23.1047C24.4193 25.4949 25.4949 24.4023 25.4949 23.0668V10.9264C25.4949 9.59095 24.4193 8.49831 23.1047 8.49831ZM15.9343 19.4247C14.6197 19.4247 13.5441 18.3321 13.5441 16.9966C13.5441 15.6612 14.6197 14.5685 15.9343 14.5685C17.2488 14.5685 18.3244 15.6612 18.3244 16.9966C18.3244 18.3321 17.2488 19.4247 15.9343 19.4247ZM12.349 8.49831V6.07022C12.349 4.05491 13.9504 2.42809 15.9343 2.42809C17.9181 2.42809 19.5195 4.05491 19.5195 6.07022V8.49831H12.349Z" fill="#DEDEDE"/>
<path d="M7.30313 30.0575C7.63113 30.0575 7.89513 30.1495 8.09513 30.3335C8.29513 30.5135 8.39513 30.7755 8.39513 31.1195C8.39513 31.2475 8.38513 31.3635 8.36513 31.4675L8.02313 33.4055H7.48313L7.81313 31.5455C7.82913 31.4615 7.83713 31.3735 7.83713 31.2815C7.83713 31.0375 7.76913 30.8515 7.63313 30.7235C7.50113 30.5955 7.31513 30.5315 7.07513 30.5315C6.78713 30.5315 6.54113 30.6215 6.33713 30.8015C6.13713 30.9815 6.00713 31.2435 5.94713 31.5875V31.5755L5.62313 33.4055H5.07713L5.86313 28.9655H6.40913L6.12113 30.5915C6.25713 30.4235 6.42913 30.2935 6.63713 30.2015C6.84913 30.1055 7.07113 30.0575 7.30313 30.0575ZM9.74302 32.5055C9.73102 32.5655 9.72502 32.6175 9.72502 32.6615C9.72502 32.7615 9.75502 32.8335 9.81502 32.8775C9.87902 32.9215 9.98102 32.9435 10.121 32.9435H10.523L10.439 33.4055H9.94702C9.68702 33.4055 9.49102 33.3555 9.35902 33.2555C9.23102 33.1555 9.16702 32.9915 9.16702 32.7635C9.16702 32.6755 9.17502 32.5895 9.19102 32.5055L9.53302 30.5675H9.11302L9.19102 30.1175H9.61702L9.76102 29.2895H10.313L10.169 30.1175H11.021L10.943 30.5675H10.085L9.74302 32.5055ZM11.9286 32.5055C11.9166 32.5655 11.9106 32.6175 11.9106 32.6615C11.9106 32.7615 11.9406 32.8335 12.0006 32.8775C12.0646 32.9215 12.1666 32.9435 12.3066 32.9435H12.7086L12.6246 33.4055H12.1326C11.8726 33.4055 11.6766 33.3555 11.5446 33.2555C11.4166 33.1555 11.3526 32.9915 11.3526 32.7635C11.3526 32.6755 11.3606 32.5895 11.3766 32.5055L11.7186 30.5675H11.2986L11.3766 30.1175H11.8026L11.9466 29.2895H12.4986L12.3546 30.1175H13.2066L13.1286 30.5675H12.2706L11.9286 32.5055ZM14.3061 30.7235C14.4501 30.5355 14.6401 30.3795 14.8761 30.2555C15.1121 30.1275 15.3701 30.0635 15.6501 30.0635C15.9061 30.0635 16.1321 30.1175 16.3281 30.2255C16.5281 30.3295 16.6821 30.4815 16.7901 30.6815C16.8981 30.8775 16.9521 31.1095 16.9521 31.3775C16.9521 31.4935 16.9401 31.6175 16.9161 31.7495C16.8561 32.0815 16.7341 32.3775 16.5501 32.6375C16.3701 32.8975 16.1481 33.0995 15.8841 33.2435C15.6241 33.3875 15.3481 33.4595 15.0561 33.4595C14.7761 33.4595 14.5401 33.3975 14.3481 33.2735C14.1601 33.1455 14.0241 32.9875 13.9401 32.7995L13.5621 34.9655H13.0161L13.8681 30.1175H14.4141L14.3061 30.7235ZM16.3581 31.7495C16.3741 31.6655 16.3821 31.5735 16.3821 31.4735C16.3821 31.1815 16.2961 30.9535 16.1241 30.7895C15.9521 30.6215 15.7301 30.5375 15.4581 30.5375C15.2581 30.5375 15.0641 30.5875 14.8761 30.6875C14.6881 30.7835 14.5261 30.9255 14.3901 31.1135C14.2581 31.2975 14.1701 31.5115 14.1261 31.7555C14.1101 31.8395 14.1021 31.9315 14.1021 32.0315C14.1021 32.3235 14.1881 32.5555 14.3601 32.7275C14.5361 32.8955 14.7581 32.9795 15.0261 32.9795C15.2301 32.9795 15.4241 32.9315 15.6081 32.8355C15.7961 32.7355 15.9561 32.5935 16.0881 32.4095C16.2241 32.2215 16.3141 32.0015 16.3581 31.7495ZM18.4988 33.4595C18.1548 33.4595 17.8728 33.3775 17.6528 33.2135C17.4328 33.0495 17.3228 32.8295 17.3228 32.5535C17.3228 32.5015 17.3248 32.4635 17.3288 32.4395H17.8628C17.8468 32.6115 17.8968 32.7515 18.0128 32.8595C18.1328 32.9675 18.3048 33.0215 18.5288 33.0215C18.7528 33.0215 18.9328 32.9795 19.0688 32.8955C19.2088 32.8075 19.2788 32.6855 19.2788 32.5295C19.2788 32.3975 19.2228 32.2935 19.1108 32.2175C18.9988 32.1415 18.8268 32.0595 18.5948 31.9715C18.3908 31.8955 18.2228 31.8235 18.0908 31.7555C17.9588 31.6875 17.8468 31.5935 17.7548 31.4735C17.6628 31.3495 17.6168 31.1935 17.6168 31.0055C17.6168 30.8215 17.6688 30.6575 17.7728 30.5135C17.8808 30.3695 18.0288 30.2595 18.2168 30.1835C18.4088 30.1035 18.6268 30.0635 18.8708 30.0635C19.2068 30.0635 19.4828 30.1475 19.6988 30.3155C19.9148 30.4835 20.0228 30.7035 20.0228 30.9755C20.0228 31.0275 20.0208 31.0675 20.0168 31.0955H19.4948L19.5008 31.0235C19.5008 30.8635 19.4388 30.7375 19.3148 30.6455C19.1948 30.5495 19.0348 30.5015 18.8348 30.5015C18.6388 30.5015 18.4768 30.5455 18.3488 30.6335C18.2248 30.7215 18.1628 30.8395 18.1628 30.9875C18.1628 31.1275 18.2208 31.2375 18.3368 31.3175C18.4528 31.3975 18.6328 31.4855 18.8768 31.5815C19.0808 31.6615 19.2448 31.7355 19.3688 31.8035C19.4928 31.8675 19.5988 31.9575 19.6868 32.0735C19.7748 32.1895 19.8188 32.3355 19.8188 32.5115C19.8188 32.7035 19.7608 32.8715 19.6448 33.0155C19.5328 33.1595 19.3768 33.2695 19.1768 33.3455C18.9768 33.4215 18.7508 33.4595 18.4988 33.4595ZM20.6436 33.4415C20.5516 33.4415 20.4756 33.4135 20.4156 33.3575C20.3596 33.3015 20.3316 33.2275 20.3316 33.1355C20.3316 33.0155 20.3756 32.9135 20.4636 32.8295C20.5516 32.7415 20.6556 32.6975 20.7756 32.6975C20.8676 32.6975 20.9416 32.7255 20.9976 32.7815C21.0536 32.8375 21.0816 32.9115 21.0816 33.0035C21.0816 33.1235 21.0376 33.2275 20.9496 33.3155C20.8616 33.3995 20.7596 33.4415 20.6436 33.4415ZM20.6436 30.8735C20.5516 30.8735 20.4756 30.8455 20.4156 30.7895C20.3596 30.7335 20.3316 30.6595 20.3316 30.5675C20.3316 30.4475 20.3756 30.3455 20.4636 30.2615C20.5516 30.1735 20.6556 30.1295 20.7756 30.1295C20.8676 30.1295 20.9416 30.1575 20.9976 30.2135C21.0536 30.2695 21.0816 30.3435 21.0816 30.4355C21.0816 30.5555 21.0376 30.6595 20.9496 30.7475C20.8616 30.8315 20.7596 30.8735 20.6436 30.8735ZM24.7889 27.7535L21.9689 34.4255H21.4289L24.2429 27.7535H24.7889ZM27.6424 27.7535L24.8224 34.4255H24.2824L27.0964 27.7535H27.6424Z" fill="#DEDEDE"/>
<path d="M98.45 14.7761C98.45 14.7761 99.0132 17.5343 99.1399 18.1121H96.6646C96.9088 17.4516 97.8509 14.8868 97.8509 14.8868C97.8362 14.9095 98.0951 14.2116 98.2432 13.7819L98.45 14.7761ZM106.3 3.55891V29.6549C106.3 31.6192 104.707 33.2138 102.742 33.2138H67.1564C65.1922 33.2138 63.5975 31.6205 63.5975 29.6549V3.55891C63.5975 1.59464 65.1908 0 67.1564 0H102.742C104.706 0 106.3 1.5933 106.3 3.55891ZM74.9041 22.1821L79.5893 10.6767H76.4387L73.5256 18.5352L73.2067 16.9418L72.1685 11.6482C71.9977 10.9143 71.472 10.7061 70.8194 10.6767H66.0235L65.9715 10.9062C67.1431 11.2025 68.188 11.6322 69.0994 12.174L71.7535 22.1821H74.9041ZM81.9032 22.1968L83.7714 10.6767H80.7916L78.9314 22.1968H81.9032ZM92.2743 18.4311C92.289 17.1193 91.4883 16.1185 89.7763 15.2952C88.7314 14.7681 88.0936 14.4131 88.0936 13.8713C88.1082 13.3816 88.6353 12.8772 89.8056 12.8772C90.7771 12.8545 91.4883 13.0854 92.0221 13.3149L92.289 13.4403L92.6973 10.949C92.1115 10.7194 91.1774 10.4592 90.0285 10.4592C87.0847 10.4592 85.0164 12.0312 85.0017 14.269C84.979 15.9223 86.4842 16.8418 87.6118 17.3969C88.7608 17.96 89.1544 18.331 89.1544 18.8274C89.1397 19.5987 88.2203 19.9536 87.3676 19.9536C86.1813 19.9536 85.5435 19.7682 84.572 19.3385L84.1797 19.153L83.7647 21.7404C84.4613 22.0594 85.7516 22.3409 87.0861 22.3556C90.214 22.3623 92.253 20.813 92.2756 18.4271L92.2743 18.4311ZM102.742 22.1968L100.34 10.6767H98.0337C97.3224 10.6767 96.7807 10.8849 96.4764 11.6335L92.0501 22.1981H95.178C95.178 22.1981 95.6891 20.7743 95.8012 20.4714H99.627C99.7164 20.8797 99.9833 22.1981 99.9833 22.1981L102.742 22.1968Z" fill="#DEDEDE"/>
<path d="M150.113 16.7697C150.113 17.6744 149.394 18.363 148.482 18.363C147.801 18.363 147.296 17.9774 147.296 17.2514C147.296 16.3467 148.001 15.6208 148.906 15.6208C149.595 15.6208 150.113 16.0438 150.113 16.7697ZM142.269 13.1748H141.921C141.81 13.1748 141.698 13.2495 141.684 13.3749L141.365 15.3552L141.973 15.3325C142.789 15.3325 143.418 15.2218 143.566 14.2797C143.737 13.2855 143.107 13.1748 142.269 13.1748ZM163.324 13.1748H162.99C162.857 13.1748 162.768 13.2495 162.753 13.3749L162.442 15.3552L163.034 15.3325C163.998 15.3325 164.665 15.1097 164.665 13.9981C164.657 13.2121 163.955 13.1748 163.324 13.1748ZM179.003 3.55891V29.6549C179.003 31.6192 177.41 33.2138 175.445 33.2138H139.859C137.895 33.2138 136.301 31.6205 136.301 29.6549V3.55891C136.301 1.59464 137.894 0 139.859 0H175.445C177.409 0 179.003 1.5933 179.003 3.55891ZM145.814 13.5964C145.814 12.0392 144.613 11.5201 143.241 11.5201H140.276C140.09 11.5201 139.905 11.6682 139.89 11.8684L138.674 19.4372C138.652 19.5853 138.764 19.7335 138.912 19.7335H140.321C140.521 19.7335 140.707 19.5186 140.729 19.3105L141.063 17.3382C141.138 16.8044 142.041 16.9899 142.398 16.9899C144.518 16.9899 145.815 15.7302 145.815 13.5951L145.814 13.5964ZM152.056 14.249H150.647C150.365 14.249 150.351 14.6573 150.336 14.8575C149.906 14.2276 149.283 14.1155 148.579 14.1155C146.762 14.1155 145.376 15.7088 145.376 17.4663C145.376 18.9115 146.281 19.8536 147.726 19.8536C148.393 19.8536 149.223 19.4906 149.69 18.9715C149.653 19.0823 149.615 19.3198 149.615 19.4319C149.615 19.6027 149.69 19.7281 149.853 19.7281H151.129C151.329 19.7281 151.5 19.5133 151.537 19.3051L152.294 14.5386C152.316 14.3971 152.204 14.249 152.056 14.249ZM155.059 21.5069L159.781 14.6413C159.818 14.6039 159.818 14.5666 159.818 14.5159C159.818 14.3904 159.708 14.257 159.581 14.257H158.157C158.032 14.257 157.898 14.3317 157.823 14.4425L155.859 17.3342L155.044 14.5546C154.985 14.3918 154.821 14.2583 154.636 14.2583H153.249C153.122 14.2583 153.012 14.3918 153.012 14.5172C153.012 14.6066 154.457 18.7286 154.583 19.121C154.383 19.4025 153.064 21.2414 153.064 21.4642C153.064 21.5977 153.174 21.7017 153.301 21.7017H154.725C154.858 21.6951 154.984 21.6203 155.059 21.5096V21.5069ZM166.868 13.5964C166.868 12.0392 165.667 11.5201 164.295 11.5201H161.352C161.152 11.5201 160.966 11.6682 160.943 11.8684L159.742 19.4306C159.728 19.5787 159.838 19.7268 159.98 19.7268H161.5C161.648 19.7268 161.759 19.616 161.796 19.4893L162.13 17.3395C162.204 16.8057 163.109 16.9912 163.464 16.9912C165.57 16.9912 166.868 15.7315 166.868 13.5964ZM173.109 14.249H171.7C171.419 14.249 171.404 14.6573 171.381 14.8575C170.973 14.2276 170.343 14.1155 169.624 14.1155C167.808 14.1155 166.421 15.7088 166.421 17.4663C166.421 18.9115 167.326 19.8536 168.771 19.8536C169.461 19.8536 170.291 19.4906 170.735 18.9715C170.713 19.0823 170.661 19.3198 170.661 19.4319C170.661 19.6027 170.735 19.7281 170.898 19.7281H172.181C172.381 19.7281 172.552 19.5133 172.589 19.3051L173.345 14.5386C173.368 14.3971 173.257 14.249 173.109 14.249ZM176.631 11.7803C176.631 11.6322 176.52 11.5214 176.393 11.5214H175.022C174.911 11.5214 174.799 11.6108 174.784 11.7216L173.583 19.4319L173.562 19.4693C173.562 19.6027 173.672 19.7281 173.821 19.7281H175.044C175.23 19.7281 175.415 19.5133 175.43 19.3051L176.631 11.803V11.7803ZM169.959 15.6208C169.054 15.6208 168.349 16.34 168.349 17.2514C168.349 17.9707 168.868 18.363 169.55 18.363C170.44 18.363 171.16 17.6811 171.16 16.7697C171.168 16.0438 170.649 15.6208 169.959 15.6208Z" fill="#DEDEDE"/>
<path d="M244.804 27.9719C244.804 28.476 244.463 28.8393 243.974 28.8393C243.47 28.8393 243.144 28.4538 243.144 27.9719C243.144 27.49 243.47 27.1045 243.974 27.1045C244.463 27.1045 244.804 27.49 244.804 27.9719ZM221.762 27.1045C221.236 27.1045 220.932 27.49 220.932 27.9719C220.932 28.4538 221.236 28.8393 221.762 28.8393C222.244 28.8393 222.57 28.476 222.57 27.9719C222.563 27.49 222.244 27.1045 221.762 27.1045ZM230.473 27.0822C230.073 27.0822 229.829 27.3417 229.769 27.7272H231.185C231.118 27.3047 230.859 27.0822 230.473 27.0822ZM238.465 27.1045C237.961 27.1045 237.657 27.49 237.657 27.9719C237.657 28.4538 237.961 28.8393 238.465 28.8393C238.97 28.8393 239.296 28.476 239.296 27.9719C239.296 27.49 238.97 27.1045 238.465 27.1045ZM246.317 29.0395C246.317 29.0617 246.339 29.0765 246.339 29.121C246.339 29.1432 246.317 29.1581 246.317 29.2026C246.294 29.2248 246.294 29.2396 246.279 29.2619C246.257 29.2841 246.242 29.2989 246.198 29.2989C246.176 29.3212 246.161 29.3212 246.116 29.3212C246.094 29.3212 246.079 29.3212 246.035 29.2989C246.013 29.2989 245.998 29.2767 245.976 29.2619C245.953 29.2396 245.938 29.2248 245.938 29.2026C245.916 29.1655 245.916 29.1432 245.916 29.121C245.916 29.0839 245.916 29.0617 245.938 29.0395C245.938 29.0024 245.961 28.9801 245.976 28.9579C245.998 28.9357 246.013 28.9357 246.035 28.9208C246.072 28.8986 246.094 28.8986 246.116 28.8986C246.153 28.8986 246.176 28.8986 246.198 28.9208C246.235 28.9431 246.257 28.9431 246.279 28.9579C246.302 28.9727 246.294 29.0024 246.317 29.0395ZM246.153 29.1433C246.191 29.1433 246.191 29.121 246.213 29.121C246.235 29.0988 246.235 29.0839 246.235 29.0617C246.235 29.0395 246.235 29.0246 246.213 29.0024C246.191 29.0024 246.176 28.9801 246.131 28.9801H246.013V29.2396H246.072V29.1358H246.094L246.176 29.2396H246.235L246.153 29.1433ZM251.706 3.55858V29.6548C251.706 31.6194 250.112 33.2134 248.148 33.2134H212.562C210.597 33.2134 209.003 31.6194 209.003 29.6548V3.55858C209.003 1.59395 210.597 0 212.562 0H248.148C250.112 0 251.706 1.59395 251.706 3.55858ZM213.748 13.9081C213.748 19.5796 218.352 24.1761 224.016 24.1761C226.033 24.1761 228.012 23.5681 229.688 22.4635C224.283 18.0672 224.32 9.77125 229.688 5.37493C228.012 4.26288 226.033 3.66237 224.016 3.66237C218.352 3.65495 213.748 8.25886 213.748 13.9081ZM230.355 21.9742C235.582 17.8967 235.559 9.94918 230.355 5.84941C225.15 9.94918 225.128 17.9041 230.355 21.9742ZM219.805 27.6309C219.805 26.9859 219.383 26.5633 218.715 26.541C218.374 26.541 218.011 26.6448 217.766 27.0229C217.588 26.719 217.285 26.541 216.862 26.541C216.58 26.541 216.298 26.6448 216.076 26.9414V26.6152H215.468V29.336H216.076C216.076 27.9348 215.891 27.0971 216.743 27.0971C217.5 27.0971 217.351 27.8533 217.351 29.336H217.937C217.937 27.9793 217.752 27.0971 218.604 27.0971C219.36 27.0971 219.212 27.8384 219.212 29.336H219.82V27.6309H219.805ZM223.134 26.6152H222.548V26.9414C222.348 26.6967 222.066 26.541 221.681 26.541C220.917 26.541 220.332 27.149 220.332 27.9719C220.332 28.8022 220.917 29.4027 221.681 29.4027C222.066 29.4027 222.348 29.2619 222.548 29.0024V29.3434H223.134V26.6152ZM226.136 28.5131C226.136 27.401 224.439 27.9052 224.439 27.3862C224.439 26.9636 225.321 27.0303 225.81 27.3047L226.055 26.8228C225.358 26.3705 223.816 26.3779 223.816 27.4307C223.816 28.4908 225.514 28.046 225.514 28.5427C225.514 29.0098 224.513 28.9727 223.979 28.602L223.72 29.0691C224.55 29.6326 226.136 29.5139 226.136 28.5131ZM228.761 29.2026L228.598 28.6984C228.316 28.8541 227.693 29.0246 227.693 28.3945V27.1638H228.665V26.6152H227.693V25.7848H227.085V26.6152H226.522V27.1564H227.085V28.3945C227.085 29.6993 228.368 29.462 228.761 29.2026ZM229.747 28.2091H231.786C231.786 27.0081 231.237 26.5336 230.496 26.5336C229.71 26.5336 229.146 27.1193 229.146 27.9645C229.146 29.4843 230.822 29.7363 231.652 29.0172L231.371 28.5724C230.792 29.0469 229.917 29.0024 229.747 28.2091ZM234.128 26.6152C233.787 26.4669 233.268 26.4817 233.002 26.9414V26.6152H232.394V29.336H233.002V27.8014C233.002 26.9414 233.706 27.0526 233.951 27.1786L234.128 26.6152ZM234.914 27.9719C234.914 27.1267 235.774 26.8524 236.449 27.3491L236.731 26.8672C235.871 26.1926 234.306 26.5633 234.306 27.9793C234.306 29.4472 235.967 29.7438 236.731 29.0914L236.449 28.6095C235.767 29.0914 234.914 28.8022 234.914 27.9719ZM239.859 26.6152H239.251V26.9414C238.636 26.1259 237.035 26.5855 237.035 27.9719C237.035 29.3953 238.695 29.8031 239.251 29.0024V29.3434H239.859V26.6152ZM242.358 26.6152C242.18 26.5262 241.542 26.4002 241.231 26.9414V26.6152H240.645V29.336H241.231V27.8014C241.231 26.9859 241.898 27.0378 242.18 27.1786L242.358 26.6152ZM245.345 25.5105H244.76V26.9414C244.152 26.1333 242.543 26.5633 242.543 27.9719C242.543 29.4101 244.211 29.7957 244.76 29.0024V29.3434H245.345V25.5105ZM245.909 19.9428V20.2839H245.968V19.9428H246.109V19.8835H245.768V19.9428H245.909ZM246.398 29.121C246.398 29.0839 246.398 29.0395 246.376 29.0024C246.354 28.9801 246.339 28.9431 246.317 28.9208C246.294 28.8986 246.257 28.8838 246.235 28.8615C246.198 28.8615 246.153 28.8393 246.116 28.8393C246.094 28.8393 246.057 28.8615 246.013 28.8615C245.976 28.8838 245.953 28.8986 245.931 28.9208C245.894 28.9431 245.872 28.9801 245.872 29.0024C245.85 29.0395 245.85 29.0839 245.85 29.121C245.85 29.1432 245.85 29.1803 245.872 29.2248C245.872 29.247 245.894 29.2841 245.931 29.3064C245.953 29.3286 245.968 29.3434 246.013 29.3657C246.05 29.3879 246.094 29.3879 246.116 29.3879C246.153 29.3879 246.198 29.3879 246.235 29.3657C246.257 29.3434 246.294 29.3286 246.317 29.3064C246.339 29.2841 246.354 29.247 246.376 29.2248C246.398 29.1803 246.398 29.1432 246.398 29.121ZM246.635 19.8761H246.532L246.413 20.1356L246.294 19.8761H246.191V20.2765H246.25V19.9725L246.368 20.232H246.45L246.554 19.9725V20.2765H246.635V19.8761ZM246.962 13.9081C246.962 8.25886 242.358 3.65495 236.694 3.65495C234.677 3.65495 232.698 4.26288 231.022 5.36752C236.367 9.76384 236.449 18.082 231.022 22.4561C232.698 23.5681 234.692 24.1687 236.694 24.1687C242.358 24.1761 246.962 19.5796 246.962 13.9081Z" fill="#DEDEDE"/>
<path d="M305.811 10.0626C305.811 8.84735 304.766 8.69915 303.78 8.69915L300.883 8.67692V13.8119H302.098V11.9521H303.432C304.795 11.9521 304.506 12.7153 304.529 13.8119H305.759V12.8116C305.759 12.1299 305.647 11.6927 304.944 11.4482C305.492 11.2259 305.818 10.6553 305.811 10.0626ZM303.632 10.8999H302.098V9.76617H303.654C304.032 9.76617 304.447 9.84027 304.447 10.3145C304.447 10.8035 304.054 10.8999 303.632 10.8999ZM302.395 17.5317H298.49L296.934 19.2211L295.415 17.5317H290.487L290.48 22.6667H295.326L296.904 20.9624L298.415 22.6667H300.801L300.809 20.9402C302.209 20.9402 304.462 21.2811 304.462 19.2137C304.462 17.9318 303.551 17.5317 302.395 17.5317ZM294.703 21.5849H291.695V20.5623H294.385V19.5175H291.695V18.5913H294.785L296.111 20.0881L294.703 21.5849ZM299.579 22.1925L297.704 20.1103L299.579 18.08V22.1925ZM302.38 19.8954H300.809V18.5913H302.402C302.817 18.5913 303.158 18.7617 303.158 19.2137C303.158 19.6879 302.817 19.8954 302.38 19.8954ZM300.038 9.76617V8.68433H295.926V13.8194H300.038V12.7597H297.156V11.7372H299.957V10.6924H297.156V9.76617H300.038ZM309.982 18.9173C309.982 17.7021 308.937 17.5317 307.974 17.5317H305.055L305.047 22.6667H306.277L306.285 20.792H307.589C308.404 20.792 308.686 20.9402 308.686 21.8146L308.678 22.6667H309.908L309.916 21.6441C309.916 20.9847 309.782 20.5253 309.1 20.2807C309.671 20.051 309.975 19.4805 309.982 18.9173ZM307.819 19.7472H306.285V18.5913H307.841C308.219 18.5913 308.634 18.6654 308.634 19.1396C308.634 19.6509 308.234 19.7472 307.819 19.7472ZM295.014 13.8194V8.68433H292.969L291.51 12.167L289.902 8.68433H287.894V13.5526L285.811 8.68433H283.996L281.795 13.8194H283.122L283.596 12.6856H286.152L286.626 13.8194H289.131V9.80322L290.909 13.8194H291.991L293.77 9.80322V13.8194H295.014ZM284.033 11.6186L284.863 9.57351L285.715 11.6186H284.033ZM319.408 23.3929V23.0594C318.607 23.4744 319.119 23.3929 307.796 23.3929C307.796 21.5256 307.804 21.6219 307.796 21.5256C307.67 21.5182 307.559 21.5182 307.1 21.5182C307.1 22.8445 307.092 22.022 307.092 23.3929H304.158C304.158 22.4963 304.166 22.2592 304.166 21.2292C303.425 21.6738 302.476 21.7034 301.624 21.6886C301.624 22.7778 301.617 22.3036 301.617 23.3929H297.993C297.615 22.9705 297.793 23.1632 296.852 22.1035C296.615 22.3629 295.904 23.1335 295.659 23.3929H289.583V16.5536H295.741C296.111 16.9685 295.948 16.7833 296.889 17.8281C297.126 17.5687 297.793 16.8352 298.052 16.5536H302.35C303.076 16.5536 303.684 16.6944 304.151 16.9685V16.5536C308.174 16.5536 308.915 16.4498 309.76 16.9315V16.5536H315.554V16.9389C316.399 16.4276 317.007 16.5536 320.363 16.5536V16.9241C321.127 16.4869 321.593 16.5388 324.387 16.5536V3.55672C324.387 1.59312 322.794 0 320.83 0H285.263C283.299 0 281.706 1.59312 281.706 3.55672V11.6927C282.403 10.07 283.166 8.2842 283.418 7.69882H286.36C286.678 8.44722 286.478 7.97299 287.027 9.2623V7.69882H290.435C290.65 8.15823 291.258 9.47718 291.465 9.92177C291.895 8.91404 292.213 8.15082 292.399 7.69882H300.031C300.031 7.69141 300.883 7.69882 300.89 7.69882C304.128 7.71364 304.862 7.63954 305.662 8.09154V7.69882H308.619V8.38794C309.182 7.93594 309.945 7.69882 310.894 7.69882H312.939C312.939 7.73587 313.08 7.72105 313.109 7.72105H315.51C315.821 8.44722 315.703 8.16564 316.162 9.24748V7.72105H319.371C319.734 8.31384 319.296 7.58768 320.2 9.08446V7.72105H323.157V14.5381H320.074C319.674 13.8712 319.971 14.3751 319.096 12.9154V14.5381H315.184C314.71 13.4414 315.177 14.5159 314.695 13.4044H313.287C312.976 14.1454 313.124 13.7897 312.813 14.5381H310.827C309.916 14.5381 309.175 14.3158 308.626 13.8786V14.5381H303.699C303.676 13.5081 303.691 12.7005 303.691 12.7005C303.558 12.6782 303.439 12.6856 302.965 12.6856V14.5455H292.925V13.7008C292.74 14.1157 292.725 14.138 292.547 14.5455H290.361C290.065 13.886 290.146 14.0713 289.983 13.7008V14.5455H286.063C285.752 13.7971 285.9 14.1528 285.589 13.4118H284.166C283.855 14.1528 284.003 13.7971 283.692 14.5455H281.721V29.6394C281.721 31.603 283.314 33.1961 285.278 33.1961H320.852C322.816 33.1961 324.409 31.603 324.409 29.6394V22.9409C323.468 23.5559 321.986 23.3929 319.408 23.3929ZM322.097 18.6135H324.328V17.5317H321.89C320.941 17.5317 320.126 18.0207 320.126 19.0655C320.126 21.5108 323.29 20.014 323.29 21.0958C323.29 21.4737 322.972 21.57 322.668 21.57H320.297L320.289 22.6667H322.66C323.283 22.6667 323.965 22.5333 324.328 22.0072V20.0955C323.55 19.0729 321.416 19.9992 321.416 19.0952C321.416 18.6654 321.756 18.6135 322.097 18.6135ZM317.874 21.5626H315.488L315.48 22.6593H317.866C318.963 22.6593 319.808 22.2443 319.808 21.0291C319.808 18.5691 316.629 20.1992 316.629 19.0803C316.629 18.6654 316.992 18.6061 317.311 18.6061H319.563V17.5243H317.103C316.155 17.5243 315.362 18.0133 315.362 19.0581C315.362 21.5034 318.526 19.9843 318.526 21.0884C318.518 21.4885 318.178 21.5626 317.874 21.5626ZM314.747 18.5913V17.5317H310.657L310.649 22.6667H314.739L314.747 21.6071L311.887 21.5849V20.5623H314.695V19.5175H311.894V18.5913H314.747ZM310.575 10.5813C310.553 10.5961 310.471 10.7443 310.471 11.1444C310.471 11.589 310.538 11.715 310.553 11.7298C310.568 11.7372 310.634 11.7668 310.805 11.7668L311.346 10.5146C311.264 10.5146 311.19 10.5072 311.116 10.5072C310.701 10.5072 310.597 10.559 310.575 10.5813ZM310.886 8.67692C309.145 8.67692 308.367 9.5661 308.367 11.2926C308.367 12.9376 309.123 13.8119 310.812 13.8119H312.235L312.709 12.6782H315.251L315.74 13.8119H318.237V9.96623L320.549 13.8119H322.297V8.69915H321.045V12.2633L318.889 8.69915H317.014V13.5452L314.947 8.69915H313.109L311.368 12.7375H310.82C309.834 12.7375 309.627 12.1373 309.627 11.263C309.627 9.49941 310.79 9.78099 312.079 9.80322V8.67692H310.886ZM314.006 9.57351L314.836 11.6186H313.146L314.006 9.57351ZM306.514 8.68433V13.8194H307.767V8.68433H306.514Z" fill="#DEDEDE"/>
</svg>
