<svg width="86" height="86" viewBox="0 0 86 86" fill="none" xmlns="http://www.w3.org/2000/svg">
<circle cx="43" cy="43" r="42.5" stroke="white"/>
<path d="M58.8836 36.4327C57.91 34.1036 59.6091 29.9227 57.8527 28.1664C56.0964 26.41 51.9155 28.1091 49.5864 27.1355C47.3336 26.1809 45.5964 22 43 22C40.4036 22 38.6664 26.1809 36.4327 27.1164C34.0845 28.09 29.9036 26.3909 28.1473 28.1473C26.3909 29.9036 28.09 34.0845 27.1164 36.4327C26.1809 38.6664 22 40.4036 22 43C22 45.5964 26.1809 47.3336 27.1164 49.5673C28.09 51.8964 26.3909 56.0773 28.1473 57.8336C29.9036 59.59 34.0845 57.8909 36.4136 58.8645C38.6664 59.8191 40.4036 64 43 64C45.5964 64 47.3336 59.8191 49.5673 58.8836C51.8964 57.91 56.0773 59.6091 57.8336 57.8527C59.59 56.0964 57.8909 51.9155 58.8645 49.5864C59.8191 47.3336 64 45.5964 64 43C64 40.4036 59.8191 38.6664 58.8836 36.4327ZM41.0909 51.4191L34.0082 44.3364L36.7 41.6445L41.0909 46.0355L51.19 35.9364L53.8818 38.6282L41.0909 51.4191Z" fill="white"/>
</svg>
