<svg width="19" height="16" viewBox="0 0 19 16" fill="none" xmlns="http://www.w3.org/2000/svg">
<path d="M9.5 16C9.37499 16.0007 9.25107 15.977 9.13534 15.9301C9.01961 15.8833 8.91435 15.8143 8.82559 15.727L1.44508 8.40449C0.519294 7.47757 0 6.22614 0 4.92204C0 3.61794 0.519294 2.36651 1.44508 1.43959C2.3781 0.517698 3.64197 0 4.95961 0C6.27724 0 7.54111 0.517698 8.47414 1.43959L9.5 2.45609L10.5259 1.43959C11.4589 0.517698 12.7228 0 14.0404 0C15.358 0 16.6219 0.517698 17.5549 1.43959C18.4807 2.36651 19 3.61794 19 4.92204C19 6.22614 18.4807 7.47757 17.5549 8.40449L10.1744 15.727C10.0857 15.8143 9.98039 15.8833 9.86466 15.9301C9.74893 15.977 9.62501 16.0007 9.5 16ZM4.95961 1.88196C4.5575 1.88016 4.15903 1.95743 3.78728 2.10929C3.41553 2.26116 3.07788 2.48461 2.7939 2.76669C2.22023 3.33811 1.8982 4.11133 1.8982 4.91733C1.8982 5.72334 2.22023 6.49656 2.7939 7.06798L9.5 13.7223L16.2061 7.06798C16.7798 6.49656 17.1018 5.72334 17.1018 4.91733C17.1018 4.11133 16.7798 3.33811 16.2061 2.76669C15.6207 2.21864 14.8458 1.9133 14.0404 1.9133C13.235 1.9133 12.4601 2.21864 11.8747 2.76669L10.1744 4.46085C10.0861 4.54907 9.98105 4.61909 9.8653 4.66687C9.74955 4.71466 9.62539 4.73926 9.5 4.73926C9.37461 4.73926 9.25045 4.71466 9.1347 4.66687C9.01895 4.61909 8.91389 4.54907 8.82559 4.46085L7.12532 2.76669C6.84133 2.48461 6.50369 2.26116 6.13193 2.10929C5.76018 1.95743 5.36171 1.88016 4.95961 1.88196Z" fill="#231F20"/>
</svg>
