<svg width="24" height="27" viewBox="0 0 24 27" fill="none" xmlns="http://www.w3.org/2000/svg">
<path d="M11.7792 13.3229C14.9828 13.3229 17.5798 10.7259 17.5798 7.52225C17.5798 4.31864 14.9828 1.7216 11.7792 1.7216C8.57555 1.7216 5.97852 4.31864 5.97852 7.52225C5.97852 10.7259 8.57555 13.3229 11.7792 13.3229Z" stroke="#7A866A" stroke-width="2.5"/>
<path d="M17.5798 15.6432H17.9878C19.743 15.6432 21.2235 16.9502 21.4413 18.6919L21.8943 22.3161C22.0674 23.7009 20.9876 24.9242 19.5919 24.9242H3.96634C2.57072 24.9242 1.49091 23.7009 1.66401 22.3161L2.11704 18.6919C2.33475 16.9502 3.81532 15.6432 5.57056 15.6432H5.97852" stroke="#7A866A" stroke-width="2.5" stroke-linecap="round" stroke-linejoin="round"/>
</svg>
